<svg xmlns="http://www.w3.org/2000/svg" xmlns:xlink="http://www.w3.org/1999/xlink" viewBox="0 0 430 430" width="430" height="430" preserveAspectRatio="xMidYMid meet" style="width: 100%; height: 100%; transform: translate3d(0px, 0px, 0px); content-visibility: visible;"><defs><clipPath id="__lottie_element_6972"><rect width="430" height="430" x="0" y="0"/></clipPath><clipPath id="__lottie_element_6974"><path d="M0,0 L430,0 L430,430 L0,430z"/></clipPath></defs><g clip-path="url(#__lottie_element_6972)"><g clip-path="url(#__lottie_element_6974)" transform="matrix(1,0,0,1,0,0)" opacity="1" style="display: block;"><g transform="matrix(1,0,0,1,215,215)" opacity="1" style="display: block;"><g opacity="1" transform="matrix(1,0,0,1,0,0)"><path stroke-linecap="butt" stroke-linejoin="miter" fill-opacity="0" stroke-miterlimit="4" class="primary" stroke="rgb(18,19,49)" stroke-opacity="1" stroke-width="7" d=" M-83.75,-11.249984741210938 C-109.25,30.08301544189453 -160.25,112.75 -160.25,112.75 C-160.25,112.75 -101.25,66.75 -71.75,43.75 M82.56201171875,-8.749984741210938 C108.53900909423828,31.750015258789062 160.5,112.75 160.5,112.75 C160.5,112.75 101.66699981689453,66.75 72.25,43.75"/></g></g><g transform="matrix(1,0,0,1,128.50001525878906,110)" opacity="1" style="display: block;"><g opacity="1" transform="matrix(1,0,0,1,86.38099670410156,-26.134000778198242)"><path class="secondary" fill="rgb(100,110,120)" fill-opacity="1" d=" M-14.571000099182129,26.52899932861328 C-14.571000099182129,26.52899932861328 -14.571000099182129,-26.52899932861328 -14.571000099182129,-26.52899932861328 C-14.571000099182129,-26.52899932861328 14.571000099182129,-26.52899932861328 14.571000099182129,-26.52899932861328 C14.571000099182129,-26.52899932861328 14.571000099182129,26.52899932861328 14.571000099182129,26.52899932861328"/></g><g opacity="1" transform="matrix(1,0,0,1,86.38099670410156,18.083999633789062)"><path class="secondary" fill="rgb(100,110,120)" fill-opacity="1" d=" M-76.45600128173828,-17.68899917602539 C-76.45600128173828,-17.68899917602539 76.45600128173828,-17.68899917602539 76.45600128173828,-17.68899917602539 C76.45600128173828,-17.68899917602539 76.45600128173828,17.68899917602539 76.45600128173828,17.68899917602539 C76.45600128173828,17.68899917602539 -76.45600128173828,17.68899917602539 -76.45600128173828,17.68899917602539 C-76.45600128173828,17.68899917602539 -76.45600128173828,-17.68899917602539 -76.45600128173828,-17.68899917602539z"/></g><g opacity="1" transform="matrix(1,0,0,1,0,0)" style="mix-blend-mode: multiply;"><g opacity="0.5" transform="matrix(1,0,0,1,79.18499755859375,-26.134000778198242)" style="mix-blend-mode: multiply;"><path class="secondary" fill="rgb(100,110,120)" fill-opacity="1" d=" M-7.010000228881836,26.52899932861328 C-7.010000228881836,26.52899932861328 -7.010000228881836,-26.52899932861328 -7.010000228881836,-26.52899932861328 C-7.010000228881836,-26.52899932861328 7.010000228881836,-26.52899932861328 7.010000228881836,-26.52899932861328 C7.010000228881836,-26.52899932861328 7.010000228881836,26.52899932861328 7.010000228881836,26.52899932861328"/></g><g opacity="0.5" transform="matrix(1,0,0,1,23.13599967956543,18.083999633789062)" style="mix-blend-mode: multiply;"><path class="secondary" fill="rgb(100,110,120)" fill-opacity="1" d=" M-12.8149995803833,-17.68899917602539 C-12.8149995803833,-17.68899917602539 12.8149995803833,-17.68899917602539 12.8149995803833,-17.68899917602539 C12.8149995803833,-17.68899917602539 12.8149995803833,17.68899917602539 12.8149995803833,17.68899917602539 C12.8149995803833,17.68899917602539 -12.8149995803833,17.68899917602539 -12.8149995803833,17.68899917602539 C-12.8149995803833,17.68899917602539 -12.8149995803833,-17.68899917602539 -12.8149995803833,-17.68899917602539z"/></g></g><g opacity="1" transform="matrix(1,0,0,1,86.38099670410156,61.540000915527344)"><path class="tertiary" fill="rgb(235,230,239)" fill-opacity="1" d=" M64.69999694824219,25.770000457763672 C64.69999694824219,25.770000457763672 64.69999694824219,-25.770000457763672 64.69999694824219,-25.770000457763672 C64.69999694824219,-25.770000457763672 -64.69999694824219,-25.770000457763672 -64.69999694824219,-25.770000457763672 C-64.69999694824219,-25.770000457763672 -64.69999694824219,25.770000457763672 -64.69999694824219,25.770000457763672"/></g><g opacity="0.5" transform="matrix(1,0,0,1,35.95100021362305,61.16600036621094)" style="mix-blend-mode: multiply;"><path class="tertiary" fill="rgb(235,230,239)" fill-opacity="1" d=" M14.270000457763672,25.393999099731445 C14.270000457763672,25.393999099731445 14.270000457763672,-25.393999099731445 14.270000457763672,-25.393999099731445 C14.270000457763672,-25.393999099731445 -14.270000457763672,-25.393999099731445 -14.270000457763672,-25.393999099731445 C-14.270000457763672,-25.393999099731445 -14.270000457763672,25.393999099731445 -14.270000457763672,25.393999099731445"/></g><g opacity="1" transform="matrix(1,0,0,1,86.38099670410156,140.8769989013672)"><path class="secondary" fill="rgb(100,110,120)" fill-opacity="1" d=" M-58.27799987792969,76.16799926757812 C-58.27799987792969,76.16799926757812 58.27799987792969,76.16799926757812 58.27799987792969,76.16799926757812 C58.27799987792969,76.16799926757812 58.28900146484375,76.11499786376953 58.28900146484375,76.11499786376953 C66.52300262451172,35.97100067138672 74.75700378417969,-4.171000003814697 82.99099731445312,-44.314998626708984 C82.99099731445312,-44.314998626708984 83.3489990234375,-46.05699920654297 83.3489990234375,-46.05699920654297 C83.3489990234375,-46.05699920654297 16.642000198364258,-72.94100189208984 16.642000198364258,-72.94100189208984 C5.965000152587891,-77.24400329589844 -5.964000225067139,-77.24400329589844 -16.641000747680664,-72.94100189208984 C-16.641000747680664,-72.94100189208984 -83.3489990234375,-46.05699920654297 -83.3489990234375,-46.05699920654297"/></g><g opacity="0.5" transform="matrix(1,0,0,1,45.507999420166016,140.8769989013672)" style="mix-blend-mode: multiply;"><path class="secondary" fill="rgb(100,110,120)" fill-opacity="1" d=" M41.67499923706055,-76.16799926757812 C36.02399826049805,-76.16799926757812 30.371000289916992,-75.09200286865234 25.033000946044922,-72.94100189208984 C25.033000946044922,-72.94100189208984 -41.67499923706055,-46.05699920654297 -41.67499923706055,-46.05699920654297 C-41.67499923706055,-46.05699920654297 -16.60300064086914,76.16799926757812 -16.60300064086914,76.16799926757812 C-16.60300064086914,76.16799926757812 41.67499923706055,76.16799926757812 41.67499923706055,76.16799926757812 C41.67499923706055,76.16799926757812 41.67499923706055,-76.16799926757812 41.67499923706055,-76.16799926757812z"/></g></g><g transform="matrix(1,0,0,1,-34.9949951171875,-36.114990234375)" opacity="1" style="display: block;"><g opacity="1" transform="matrix(1,0,0,1,185.3000030517578,206.8699951171875)"><path stroke-linecap="round" stroke-linejoin="round" fill-opacity="0" class="primary" stroke="rgb(18,19,49)" stroke-opacity="1" stroke-width="7" d=" M0,-25.770000457763672 C0,-25.770000457763672 0,25.770000457763672 0,25.770000457763672"/></g><g opacity="1" transform="matrix(1,0,0,1,314.70001220703125,206.8699951171875)"><path stroke-linecap="round" stroke-linejoin="round" fill-opacity="0" class="primary" stroke="rgb(18,19,49)" stroke-opacity="1" stroke-width="7" d=" M0,25.770000457763672 C0,25.770000457763672 0,-25.770000457763672 0,-25.770000457763672"/></g><g opacity="1" transform="matrix(1,0,0,1,250,119.19599914550781)"><path stroke-linecap="round" stroke-linejoin="round" fill-opacity="0" class="primary" stroke="rgb(18,19,49)" stroke-opacity="1" stroke-width="7" d=" M-14.571000099182129,26.52899932861328 C-14.571000099182129,26.52899932861328 -14.571000099182129,-26.52899932861328 -14.571000099182129,-26.52899932861328 C-14.571000099182129,-26.52899932861328 14.571000099182129,-26.52899932861328 14.571000099182129,-26.52899932861328 C14.571000099182129,-26.52899932861328 14.571000099182129,26.52899932861328 14.571000099182129,26.52899932861328"/></g><g opacity="1" transform="matrix(1,0,0,1,250,163.41299438476562)"><path stroke-linecap="round" stroke-linejoin="round" fill-opacity="0" class="primary" stroke="rgb(18,19,49)" stroke-opacity="1" stroke-width="7" d=" M-76.45600128173828,-17.68899917602539 C-76.45600128173828,-17.68899917602539 76.45600128173828,-17.68899917602539 76.45600128173828,-17.68899917602539 C76.45600128173828,-17.68899917602539 76.45600128173828,17.68899917602539 76.45600128173828,17.68899917602539 C76.45600128173828,17.68899917602539 -76.45600128173828,17.68899917602539 -76.45600128173828,17.68899917602539 C-76.45600128173828,17.68899917602539 -76.45600128173828,-17.68899917602539 -76.45600128173828,-17.68899917602539z"/></g><g opacity="1" transform="matrix(1,0,0,1,250,286.2070007324219)"><path stroke-linecap="round" stroke-linejoin="round" fill-opacity="0" class="primary" stroke="rgb(18,19,49)" stroke-opacity="1" stroke-width="7" d=" M-58.27799987792969,76.16899871826172 C-58.27799987792969,76.16899871826172 -83.3489990234375,-46.05699920654297 -83.3489990234375,-46.05699920654297 C-83.3489990234375,-46.05699920654297 -16.642000198364258,-72.94100189208984 -16.642000198364258,-72.94100189208984 C-5.965000152587891,-77.24400329589844 5.965000152587891,-77.24400329589844 16.642000198364258,-72.94100189208984 C16.642000198364258,-72.94100189208984 83.3489990234375,-46.05699920654297 83.3489990234375,-46.05699920654297 C83.3489990234375,-46.05699920654297 58.27799987792969,76.16899871826172 58.27799987792969,76.16899871826172"/></g><g opacity="1" transform="matrix(1,0,0,1,250,245.98800659179688)"><path stroke-linecap="round" stroke-linejoin="round" fill-opacity="0" class="primary" stroke="rgb(18,19,49)" stroke-opacity="1" stroke-width="7" d=" M0,-35.143001556396484 C0,-35.143001556396484 0,35.143001556396484 0,35.143001556396484"/></g></g><g transform="matrix(1,0,0,1,215.89700317382812,351.1610107421875)" opacity="1" style="display: block;"><g opacity="1" transform="matrix(1,0,0,1,0,0)"><path class="quaternary" fill="rgb(58,51,71)" fill-opacity="1" d=" M-112.43099975585938,23.55699920654297 C-138.6269989013672,23.55699920654297 -160.031005859375,2.5139999389648438 -160.60499572753906,-23.55699920654297 C-160.60499572753906,-23.55699920654297 160.60499572753906,-23.55699920654297 160.60499572753906,-23.55699920654297 C160.03500366210938,2.51200008392334 138.6300048828125,23.55699920654297 112.43099975585938,23.55699920654297 C112.43099975585938,23.55699920654297 -112.43099975585938,23.55699920654297 -112.43099975585938,23.55699920654297z"/></g></g><g transform="matrix(1,0,0,1,-35,-35)" opacity="1" style="display: block;"><g opacity="1" transform="matrix(1,0,0,1,250,306.2149963378906)"><path stroke-linecap="round" stroke-linejoin="round" fill-opacity="0" class="primary" stroke="rgb(18,19,49)" stroke-opacity="1" stroke-width="7" d=" M160.11900329589844,-56.21500015258789 C160.11900329589844,-56.21500015258789 160.11900329589844,56.21500015258789 160.11900329589844,56.21500015258789 C160.11900329589844,56.21500015258789 -160.11900329589844,56.21500015258789 -160.11900329589844,56.21500015258789 C-160.11900329589844,56.21500015258789 -160.11900329589844,-56.21500015258789 -160.11900329589844,-56.21500015258789"/></g><g opacity="1" transform="matrix(1,0,0,1,250,386.218994140625)"><path stroke-linecap="round" stroke-linejoin="round" fill-opacity="0" class="primary" stroke="rgb(18,19,49)" stroke-opacity="1" stroke-width="7" d=" M-160.11900329589844,-23.8439998626709 C-160.11900329589844,2.49399995803833 -138.7689971923828,23.8439998626709 -112.43099975585938,23.8439998626709 C-112.43099975585938,23.8439998626709 112.43099975585938,23.8439998626709 112.43099975585938,23.8439998626709 C138.7689971923828,23.8439998626709 160.11900329589844,2.49399995803833 160.11900329589844,-23.8439998626709"/></g></g></g></g></svg>